<svg width="97" height="19" viewBox="0 0 97 19" fill="none" xmlns="http://www.w3.org/2000/svg">
<path d="M14.8 18V4.32H14.752L9.808 18H7.408L2.488 4.32H2.44V18H0.16V1.2H3.544L8.584 15.216H8.632L13.696 1.2H17.08V18H14.8ZM21.1544 16.512V6H23.4824V16.032H29.0264V6H31.3544V18.12H29.6024L29.0264 17.136L27.3224 18.12H23.9384L21.1544 16.512ZM44.2174 12.48V16.392L41.4334 18H35.1934V15.912H41.8894V12.96H37.9774L35.1934 11.352V7.608L37.9774 6H43.9774V8.088H37.5214V10.872H41.4334L44.2174 12.48ZM48.3006 18V1.2H56.6766L59.4606 2.808V9.936L56.6766 11.544H50.7006V18H48.3006ZM50.7006 3.36V9.384H57.0606V3.36H50.7006ZM69.7566 8.088H65.3886V18H63.0606V6H64.8126L65.3886 6.984L67.0926 6H69.7566V8.088ZM82.5887 16.512L79.8048 18.12H75.1728L72.3888 16.512V7.488L75.1728 5.88H79.8048L82.5887 7.488V16.512ZM74.7168 7.968V16.032H80.2608V7.968H74.7168ZM89.2118 5.88H92.8358L94.5398 6.864V0.48H96.8678V18.12H95.1158L94.5398 17.136L92.8358 18.12H89.2118L86.4278 16.512V7.488L89.2118 5.88ZM94.5398 16.032V7.968H88.7558V16.032H94.5398Z" fill="black"/>
</svg>
