<svg width="172" height="36" viewBox="0 0 172 36" fill="none" xmlns="http://www.w3.org/2000/svg">
<path d="M15.6 14.832V18H0.912V15.48L10.128 4.368H1.104V1.2H15.24V3.72L6.048 14.832H15.6ZM21.5736 1.2H25.4616V14.832H33.8856V18H21.5736V1.2ZM44.9642 18.288C43.6362 18.288 42.3482 18.112 41.1002 17.76C39.8682 17.392 38.8762 16.92 38.1242 16.344L39.4442 13.416C40.1642 13.944 41.0202 14.368 42.0122 14.688C43.0042 15.008 43.9962 15.168 44.9882 15.168C46.0922 15.168 46.9082 15.008 47.4362 14.688C47.9642 14.352 48.2282 13.912 48.2282 13.368C48.2282 12.968 48.0682 12.64 47.7482 12.384C47.4442 12.112 47.0442 11.896 46.5482 11.736C46.0682 11.576 45.4122 11.4 44.5802 11.208C43.3002 10.904 42.2522 10.6 41.4362 10.296C40.6202 9.992 39.9162 9.504 39.3242 8.832C38.7482 8.16 38.4602 7.264 38.4602 6.144C38.4602 5.168 38.7242 4.288 39.2522 3.504C39.7802 2.704 40.5722 2.072 41.6282 1.608C42.7002 1.144 44.0042 0.912 45.5402 0.912C46.6122 0.912 47.6602 1.04 48.6842 1.296C49.7082 1.552 50.6042 1.92 51.3722 2.4L50.1722 5.352C48.6202 4.472 47.0682 4.032 45.5162 4.032C44.4282 4.032 43.6202 4.208 43.0922 4.56C42.5802 4.912 42.3242 5.376 42.3242 5.952C42.3242 6.528 42.6202 6.96 43.2122 7.248C43.8202 7.52 44.7402 7.792 45.9722 8.064C47.2522 8.368 48.3002 8.672 49.1162 8.976C49.9322 9.28 50.6282 9.76 51.2042 10.416C51.7962 11.072 52.0922 11.96 52.0922 13.08C52.0922 14.04 51.8202 14.92 51.2762 15.72C50.7482 16.504 49.9482 17.128 48.8762 17.592C47.8042 18.056 46.5002 18.288 44.9642 18.288ZM63.7489 18.288C62.4209 18.288 61.1329 18.112 59.8849 17.76C58.6529 17.392 57.6609 16.92 56.9089 16.344L58.2289 13.416C58.9489 13.944 59.8049 14.368 60.7969 14.688C61.7889 15.008 62.7809 15.168 63.7729 15.168C64.8769 15.168 65.6929 15.008 66.2209 14.688C66.7489 14.352 67.0129 13.912 67.0129 13.368C67.0129 12.968 66.8529 12.64 66.5329 12.384C66.2289 12.112 65.8289 11.896 65.3329 11.736C64.8529 11.576 64.1969 11.4 63.3649 11.208C62.0849 10.904 61.0369 10.6 60.2209 10.296C59.4049 9.992 58.7009 9.504 58.1089 8.832C57.5329 8.16 57.2449 7.264 57.2449 6.144C57.2449 5.168 57.5089 4.288 58.0369 3.504C58.5649 2.704 59.3569 2.072 60.4129 1.608C61.4849 1.144 62.7889 0.912 64.3249 0.912C65.3969 0.912 66.4449 1.04 67.4689 1.296C68.4929 1.552 69.3889 1.92 70.1569 2.4L68.9569 5.352C67.4049 4.472 65.8529 4.032 64.3009 4.032C63.2129 4.032 62.4049 4.208 61.8769 4.56C61.3649 4.912 61.1089 5.376 61.1089 5.952C61.1089 6.528 61.4049 6.96 61.9969 7.248C62.6049 7.52 63.5249 7.792 64.7569 8.064C66.0369 8.368 67.0849 8.672 67.9009 8.976C68.7169 9.28 69.4129 9.76 69.9889 10.416C70.5809 11.072 70.8769 11.96 70.8769 13.08C70.8769 14.04 70.6049 14.92 70.0609 15.72C69.5329 16.504 68.7329 17.128 67.6609 17.592C66.5889 18.056 65.2849 18.288 63.7489 18.288ZM83.1336 11.4L80.8776 13.752V18H77.0136V1.2H80.8776V9.048L88.3176 1.2H92.6376L85.6776 8.688L93.0456 18H88.5096L83.1336 11.4ZM105.104 12.048V18H101.216V12L94.7124 1.2H98.8404L103.328 8.664L107.816 1.2H111.632L105.104 12.048Z" fill="#2B2A2A"/>
<path d="M8.4 35V28.16H8.376L5.904 35H4.704L2.244 28.16H2.22V35H1.08V26.6H2.772L5.292 33.608H5.316L7.848 26.6H9.54V35H8.4ZM20.4572 26.6H21.6572V34.256L20.2652 35.06H16.7492L15.3572 34.256V26.6H16.5572V33.86H20.4572V26.6ZM27.4781 30.56V27.344L28.8701 26.54H31.6661L33.0581 27.344V28.58H31.8581V27.62H28.6781V30.164H31.6661L33.0581 30.968V34.256L31.6661 35.06H28.7501L27.3581 34.256V33.02H28.5581V33.98H31.8581V31.364H28.8701L27.4781 30.56ZM38.8725 35V26.6H40.0725V35H38.8725ZM50.6358 32.9H51.8358V34.256L50.4438 35.06H47.2878L45.8958 34.256V27.344L47.2878 26.54H50.4438L51.8358 27.344V28.7H50.6358V27.62H47.0958V33.98H50.6358V32.9ZM64.3134 35V26.6H68.5014L69.8934 27.404V30.968L68.5014 31.772H65.5134V35H64.3134ZM65.5134 27.68V30.692H68.6934V27.68H65.5134ZM78.4854 31.652H76.6734V35H75.4734V26.6H79.7814L81.1734 27.404V30.848L79.7814 31.652L81.7134 35H80.3814L78.4854 31.652ZM76.6734 27.68V30.572H79.9734V27.68H76.6734ZM93.2967 34.256L91.9047 35.06H88.3887L86.9967 34.256V27.344L88.3887 26.54H91.9047L93.2967 27.344V34.256ZM88.1967 27.62V33.98H92.0967V27.62H88.1967ZM105.418 34.196L104.026 35H99.1177V26.6H104.026L105.418 27.404V34.196ZM100.318 27.68V33.92H104.218V27.68H100.318ZM116.339 26.6H117.539V34.256L116.147 35.06H112.631L111.239 34.256V26.6H112.439V33.86H116.339V26.6ZM128.1 32.9H129.3V34.256L127.908 35.06H124.752L123.36 34.256V27.344L124.752 26.54H127.908L129.3 27.344V28.7H128.1V27.62H124.56V33.98H128.1V32.9ZM137.868 27.68V35H136.668V27.68H134.28V26.6H140.256V27.68H137.868ZM145.351 35V26.6H146.551V35H145.351ZM158.675 34.256L157.283 35.06H153.767L152.375 34.256V27.344L153.767 26.54H157.283L158.675 27.344V34.256ZM153.575 27.62V33.98H157.475V27.62H153.575ZM165.696 28.652V35H164.496V26.6H165.588L169.932 32.948H169.956V26.6H171.156V35H170.064L165.72 28.652H165.696Z" fill="#6C6C6C"/>
</svg>
